<svg width="114" height="18" viewBox="0 0 114 18" fill="none" xmlns="http://www.w3.org/2000/svg">
<path d="M0.2 17.5V8.02L4.28 12.1V17.5H0.2ZM11.408 4.516L15.392 0.532V17.5H11.552L11.384 17.332L6.896 12.844L4.28 10.228L0.2 6.148V1.012H0.848L0.944 1.108L11.312 11.476V4.612L11.408 4.516ZM21.8816 13.42H31.5776L31.5536 17.5H17.8016V8.164L21.8816 12.268V13.42ZM31.5776 11.308H22.7936L17.8016 6.34V1.012H31.5776V5.092H22.3376L24.4736 7.228H31.5776V11.308ZM40.1654 17.5V8.932L44.2454 13.036V17.5H40.1654ZM33.9734 1.012H50.4614V5.092H44.2454V11.164L40.1654 7.084V5.092H33.9734V1.012ZM50.7078 17.5L57.7638 5.884L60.1398 9.844L55.4838 17.5H50.7078ZM60.9078 0.699999L71.0838 17.5H66.3078L65.3238 15.868L58.5318 4.612L60.9078 0.699999ZM75.9888 7.108L75.7728 7.516L72.6768 4.42L72.8448 4.204C73.6288 3.052 74.6368 2.156 75.8688 1.516C77.1008 0.86 78.4128 0.532 79.8048 0.532C81.8208 0.532 83.6048 1.164 85.1568 2.428C86.6928 3.676 87.6688 5.26 88.0848 7.18L88.1808 7.588H83.8608L83.7648 7.372C83.5568 6.86 83.2528 6.396 82.8528 5.98C82.0048 5.148 80.9888 4.732 79.8048 4.732C78.6208 4.732 77.6128 5.148 76.7808 5.98C76.4448 6.316 76.1808 6.692 75.9888 7.108ZM83.7648 10.66L83.8608 10.468H88.1808L88.0848 10.852C87.8128 12.084 87.2928 13.204 86.5248 14.212C85.7568 15.204 84.8128 15.988 83.6928 16.564C83.5008 16.66 83.3088 16.748 83.1168 16.828C82.0608 17.276 80.9568 17.5 79.8048 17.5C77.4688 17.5 75.4688 16.676 73.8048 15.028C72.1568 13.364 71.3328 11.364 71.3328 9.028C71.3328 8.052 71.4928 7.108 71.8128 6.196L71.9808 5.716L75.5328 9.244V9.364C75.6288 10.404 76.0448 11.3 76.7808 12.052C77.5328 12.788 78.4288 13.204 79.4688 13.3C79.6608 13.316 79.8608 13.316 80.0688 13.3C80.5008 13.268 80.9248 13.18 81.3408 13.036C81.4688 12.972 81.5968 12.908 81.7248 12.844C82.1408 12.652 82.5168 12.388 82.8528 12.052C83.2528 11.652 83.5568 11.188 83.7648 10.66ZM95.231 7.108L95.015 7.516L91.919 4.42L92.087 4.204C92.871 3.052 93.879 2.156 95.111 1.516C96.343 0.86 97.655 0.532 99.047 0.532C101.063 0.532 102.847 1.164 104.399 2.428C105.935 3.676 106.911 5.26 107.327 7.18L107.423 7.588H103.103L103.007 7.372C102.799 6.86 102.495 6.396 102.095 5.98C101.247 5.148 100.231 4.732 99.047 4.732C97.863 4.732 96.855 5.148 96.023 5.98C95.687 6.316 95.423 6.692 95.231 7.108ZM103.007 10.66L103.103 10.468H107.423L107.327 10.852C107.055 12.084 106.535 13.204 105.767 14.212C104.999 15.204 104.055 15.988 102.935 16.564C102.743 16.66 102.551 16.748 102.359 16.828C101.303 17.276 100.199 17.5 99.047 17.5C96.711 17.5 94.711 16.676 93.047 15.028C91.399 13.364 90.575 11.364 90.575 9.028C90.575 8.052 90.735 7.108 91.055 6.196L91.223 5.716L94.775 9.244V9.364C94.871 10.404 95.287 11.3 96.023 12.052C96.775 12.788 97.671 13.204 98.711 13.3C98.903 13.316 99.103 13.316 99.311 13.3C99.743 13.268 100.167 13.18 100.583 13.036C100.711 12.972 100.839 12.908 100.967 12.844C101.383 12.652 101.759 12.388 102.095 12.052C102.495 11.652 102.799 11.188 103.007 10.66ZM109.817 1.012H113.897V7.132L109.817 3.052V1.012ZM109.817 17.5V4.9L113.897 9.004V17.5H109.817Z" fill="#2B2D42"/>
</svg>
