<svg width="229" height="35" viewBox="0 0 229 35" fill="none" xmlns="http://www.w3.org/2000/svg">
<path d="M0.9 34.6553V15.6953L9.06 23.8553V34.6553H0.9ZM23.316 8.68727L31.284 0.719273V34.6553H23.604L23.268 34.3193L14.292 25.3433L9.06 20.1113L0.9 11.9513V1.67927H2.196L2.388 1.87127L23.124 22.6073V8.87927L23.316 8.68727ZM44.2631 26.4953H63.6551L63.6071 34.6553H36.1031V15.9833L44.2631 24.1913V26.4953ZM63.6551 22.2713H46.0871L36.1031 12.3353V1.67927H63.6551V9.83927H45.1751L49.4471 14.1113H63.6551V22.2713ZM80.8309 34.6553V17.5193L88.9909 25.7273V34.6553H80.8309ZM68.4469 1.67927H101.423V9.83927H88.9909V21.9833L80.8309 13.8233V9.83927H68.4469V1.67927ZM101.916 34.6553L116.028 11.4233L120.78 19.3433L111.468 34.6553H101.916ZM122.316 1.05527L142.668 34.6553H133.116L131.148 31.3913L117.564 8.87927L122.316 1.05527ZM152.478 13.8713L152.046 14.6873L145.854 8.49527L146.19 8.06327C147.758 5.75927 149.774 3.96727 152.238 2.68727C154.702 1.37527 157.326 0.719273 160.11 0.719273C164.142 0.719273 167.71 1.98327 170.814 4.51127C173.886 7.00727 175.838 10.1753 176.67 14.0153L176.862 14.8313H168.222L168.03 14.3993C167.614 13.3753 167.006 12.4473 166.206 11.6153C164.51 9.95127 162.478 9.11927 160.11 9.11927C157.742 9.11927 155.726 9.95127 154.062 11.6153C153.39 12.2873 152.862 13.0393 152.478 13.8713ZM168.03 20.9753L168.222 20.5913H176.862L176.67 21.3593C176.126 23.8233 175.086 26.0633 173.55 28.0793C172.014 30.0633 170.126 31.6313 167.886 32.7833C167.502 32.9753 167.118 33.1513 166.734 33.3113C164.622 34.2073 162.414 34.6553 160.11 34.6553C155.438 34.6553 151.438 33.0073 148.11 29.7113C144.814 26.3833 143.166 22.3833 143.166 17.7113C143.166 15.7593 143.486 13.8713 144.126 12.0473L144.462 11.0873L151.566 18.1433V18.3833C151.758 20.4633 152.59 22.2553 154.062 23.7593C155.566 25.2313 157.358 26.0633 159.438 26.2553C159.822 26.2873 160.222 26.2873 160.638 26.2553C161.502 26.1913 162.35 26.0153 163.182 25.7273C163.438 25.5993 163.694 25.4713 163.95 25.3433C164.782 24.9593 165.534 24.4313 166.206 23.7593C167.006 22.9593 167.614 22.0313 168.03 20.9753ZM190.962 13.8713L190.53 14.6873L184.338 8.49527L184.674 8.06327C186.242 5.75927 188.258 3.96727 190.722 2.68727C193.186 1.37527 195.81 0.719273 198.594 0.719273C202.626 0.719273 206.194 1.98327 209.298 4.51127C212.37 7.00727 214.322 10.1753 215.154 14.0153L215.346 14.8313H206.706L206.514 14.3993C206.098 13.3753 205.49 12.4473 204.69 11.6153C202.994 9.95127 200.962 9.11927 198.594 9.11927C196.226 9.11927 194.21 9.95127 192.546 11.6153C191.874 12.2873 191.346 13.0393 190.962 13.8713ZM206.514 20.9753L206.706 20.5913H215.346L215.154 21.3593C214.61 23.8233 213.57 26.0633 212.034 28.0793C210.498 30.0633 208.61 31.6313 206.37 32.7833C205.986 32.9753 205.602 33.1513 205.218 33.3113C203.106 34.2073 200.898 34.6553 198.594 34.6553C193.922 34.6553 189.922 33.0073 186.594 29.7113C183.298 26.3833 181.65 22.3833 181.65 17.7113C181.65 15.7593 181.97 13.8713 182.61 12.0473L182.946 11.0873L190.05 18.1433V18.3833C190.242 20.4633 191.074 22.2553 192.546 23.7593C194.05 25.2313 195.842 26.0633 197.922 26.2553C198.306 26.2873 198.706 26.2873 199.122 26.2553C199.986 26.1913 200.834 26.0153 201.666 25.7273C201.922 25.5993 202.178 25.4713 202.434 25.3433C203.266 24.9593 204.018 24.4313 204.69 23.7593C205.49 22.9593 206.098 22.0313 206.514 20.9753ZM220.134 1.67927H228.294V13.9193L220.134 5.75927V1.67927ZM220.134 34.6553V9.45527L228.294 17.6633V34.6553H220.134Z" fill="#EDF2F4"/>
</svg>
