<svg width="54" height="54" viewBox="0 0 54 54" fill="none" xmlns="http://www.w3.org/2000/svg">
<g id="Group 18">
<path id="Vector" d="M15.6667 24.3333C15.64 25.2667 16.0667 26.1733 16.7867 26.7867C18.7867 26.36 20.6533 25.5333 22.3333 24.3333C22.3333 22.52 20.84 21.0267 19 21.0267C17.16 21.0267 15.6933 22.4933 15.6667 24.3333ZM31.6667 24.3333C33.3467 25.5067 35.2133 26.3333 37.2133 26.76C37.9333 26.1467 38.36 25.24 38.3333 24.3333C38.3333 22.4667 36.84 20.9733 35 20.9733C33.16 20.9733 31.6667 22.4667 31.6667 24.3333ZM27 35C20.3352 35.0962 13.7573 33.6077 7.77551 30.6716C6.56091 30.0754 5.79635 28.8525 5.70187 27.5028L5.66668 27C5.66668 24.6937 6.04903 22.4137 6.78593 20.2435C7.34376 18.6007 9.06805 17.743 10.7888 17.9644C21.5519 19.3491 32.4481 19.3491 43.2112 17.9644C44.932 17.743 46.6563 18.6007 47.2141 20.2435C47.951 22.4137 48.3333 24.6937 48.3333 27L48.298 27.5052C48.2036 28.8536 47.4405 30.0756 46.2273 30.6717C40.2581 33.605 33.6707 35.0928 27 35ZM27 53.6667C30.5019 53.6667 33.9696 52.9769 37.2049 51.6368C40.4402 50.2967 43.38 48.3324 45.8562 45.8562C48.3324 43.3799 50.2967 40.4402 51.6368 37.2049C52.9769 33.9695 53.6667 30.5019 53.6667 27C53.6667 19.9276 50.8572 13.1448 45.8562 8.14382C40.8552 3.14285 34.0724 0.333336 27 0.333336C23.4981 0.333336 20.0305 1.02308 16.7951 2.36321C13.5598 3.70333 10.6201 5.66759 8.14383 8.14382C3.14286 13.1448 0.333344 19.9276 0.333344 27C0.333344 34.0724 3.14286 40.8552 8.14383 45.8562C13.1448 50.8571 19.9276 53.6667 27 53.6667Z" fill="black"/>
<circle id="eye1" r="3.45734" transform="matrix(1 0 0 -1 18.9067 24.2071)" fill="#D90429"/>
<circle id="eye2" r="3.45734" transform="matrix(1 0 0 -1 34.9699 24.2071)" fill="#D90429"/>
</g>
</svg>
